<?xml version="1.0" standalone="no"?>
<!DOCTYPE svg PUBLIC "-//W3C//DTD SVG 20010904//EN"
 "http://www.w3.org/TR/2001/REC-SVG-20010904/DTD/svg10.dtd">
<svg version="1.0" xmlns="http://www.w3.org/2000/svg"
 width="1088.000000pt" height="1067.000000pt" viewBox="0 0 1088.000000 1067.000000"
 preserveAspectRatio="xMidYMid meet">

<g transform="translate(0.000000,1067.000000) scale(0.100000,-0.100000)"
fill="#000" stroke="none">
<path d="M3303 10651 c-85 -23 -138 -49 -181 -89 -63 -59 -64 -56 160 -282
265 -267 501 -557 747 -919 l91 -134 0 -359 0 -358 -2060 0 -2060 0 0 -2209 0
-2209 1647 -1626 1647 -1626 2008 0 2008 0 5 -22 c12 -55 25 -446 19 -578 -6
-138 -5 -146 15 -172 66 -83 354 -85 432 -2 24 26 24 26 24 272 0 136 -4 304
-8 374 l-8 128 1026 0 1025 0 0 543 0 542 -270 270 -270 270 0 541 0 541 -269
289 -270 289 0 525 -1 524 -275 276 -275 275 0 560 0 560 -833 833 -832 832
-725 0 -725 1 -95 166 c-323 564 -721 1136 -1069 1538 -105 122 -366 382 -419
419 -53 36 -117 41 -209 17z m817 -2565 l0 -404 26 -31 c38 -46 112 -64 238
-59 72 3 111 9 136 22 75 39 70 5 70 445 1 356 2 394 16 376 20 -27 207 -364
329 -594 95 -179 485 -963 485 -975 0 -3 -843 -6 -1873 -6 l-1872 0 -815 815
-815 815 2038 0 2037 0 0 -404z m3240 -411 l815 -815 -1118 0 -1117 0 -47 103
c-210 454 -577 1172 -760 1485 l-25 42 719 0 718 0 815 -815z m-5700 -1410 l0
-560 270 -270 270 -270 0 -521 0 -521 269 -289 270 -289 0 -545 1 -545 270
-270 270 -270 -2 -516 -3 -516 -1627 1606 -1627 1606 -1 2185 0 2185 820 -820
820 -820 0 -560z m4210 -820 l0 -255 -1828 0 -1827 0 -255 255 -255 255 2083
0 2082 0 0 -255z m2590 0 l255 -255 -1036 0 -1037 0 -87 223 c-49 122 -94 237
-102 255 l-13 32 882 0 883 0 255 -255z m-2590 -1486 l0 -161 28 -28 c39 -39
100 -55 212 -54 104 0 155 13 200 51 l30 25 0 164 0 164 93 0 93 0 87 -267
c48 -148 87 -274 87 -280 0 -10 -401 -13 -1969 -13 l-1968 0 -239 257 c-131
141 -247 267 -257 280 l-18 23 1810 0 1811 0 0 -161z m3116 -96 c131 -141 247
-267 257 -280 l18 -23 -1030 0 -1030 0 -26 88 c-15 48 -55 174 -90 280 l-63
192 863 0 862 0 239 -257z m-1957 -1450 c25 -94 52 -208 76 -318 14 -66 28
-128 31 -137 5 -17 -91 -18 -1918 -18 l-1923 0 -255 255 -255 255 2117 0 2117
0 10 -37z m2521 -218 l255 -255 -1092 0 -1092 0 -16 78 c-10 42 -35 153 -56
247 -21 93 -39 173 -39 177 0 5 402 8 893 8 l892 0 255 -255z"/>
</g>
</svg>
