<?xml version="1.0" standalone="no"?>
<!DOCTYPE svg PUBLIC "-//W3C//DTD SVG 20010904//EN"
 "http://www.w3.org/TR/2001/REC-SVG-20010904/DTD/svg10.dtd">
<svg version="1.0" xmlns="http://www.w3.org/2000/svg"
 width="1036.000000pt" height="293.000000pt" viewBox="0 0 1036.000000 293.000000"
 preserveAspectRatio="xMidYMid meet">

<g transform="translate(0.000000,293.000000) scale(0.100000,-0.100000)"
fill="#000000" stroke="none">
<path d="M35 2920 l-30 -5 0 -145 0 -145 274 -3 273 -2 -6 -258 c-4 -141 -12
-351 -18 -467 -6 -115 -7 -250 -4 -300 4 -49 11 -162 16 -249 8 -135 15 -179
46 -290 43 -156 68 -209 127 -267 83 -83 398 -251 593 -318 49 -17 134 -38
188 -47 84 -14 111 -15 184 -5 118 17 253 62 407 135 246 118 401 230 445 321
32 66 68 224 80 347 31 341 40 488 50 828 14 492 17 526 44 536 11 4 1722 11
3801 15 2079 3 3795 10 3813 14 l32 7 0 149 0 149 -3995 -2 c-3260 -3 -3996
-5 -4007 -16 -10 -10 -15 -77 -20 -255 -6 -212 -22 -646 -33 -867 -2 -41 -6
-133 -9 -205 -11 -226 -36 -344 -98 -452 -67 -118 -187 -198 -342 -228 -107
-21 -396 -20 -507 1 -179 33 -299 120 -369 266 -73 154 -74 166 -75 991 l0
729 -24 19 c-13 10 -31 19 -40 19 -9 -1 -185 1 -391 3 -206 1 -388 1 -405 -3z
m7785 -129 c37 -7 26 -9 -55 -9 -64 0 -91 3 -75 8 32 10 74 11 130 1z m-2765
-36 c28 -12 23 -13 -70 -13 -93 0 -98 1 -70 13 17 8 48 14 70 14 22 0 54 -6
70 -14z m-4606 -11 c2 -2 -49 -3 -115 -2 -85 1 -106 3 -74 8 42 6 180 2 189
-6z m3630 0 c2 -2 -52 -3 -120 -2 -86 1 -110 3 -79 8 42 6 190 2 199 -6z
m2979 0 c2 -1 -39 -4 -92 -6 -89 -3 -118 5 -51 15 29 4 136 -3 143 -9z m3021
0 c2 -2 -38 -3 -90 -3 -67 1 -84 4 -59 9 32 7 139 2 149 -6z m-7046 -13 c8 -8
-17 -11 -98 -10 -103 1 -108 2 -80 15 35 17 160 13 178 -5z m2907 -20 c17 -5
-8 -10 -74 -14 -55 -4 -102 -5 -104 -2 -19 19 123 31 178 16z m3050 -12 c-67
-11 -149 -11 -130 1 8 5 51 9 95 9 73 -1 76 -2 35 -10z m-6439 -52 c-14 -41
-70 -131 -77 -124 -3 3 13 42 36 87 41 82 62 101 41 37z m-1795 -172 l-14 -50
5 70 c6 82 16 116 20 65 2 -19 -3 -57 -11 -85z m1654 -645 c0 -60 -4 -100 -10
-100 -6 0 -10 30 -10 69 0 65 8 131 16 131 2 0 4 -45 4 -100z m-1641 -715 c0
-33 -4 -67 -9 -75 -7 -10 -9 17 -9 85 1 108 16 99 18 -10z m1516 -250 c-10
-20 -36 -51 -59 -69 -84 -68 -88 -57 -11 27 43 48 81 85 83 83 2 -3 -4 -21
-13 -41z m-1210 -71 c29 -24 29 -25 5 -18 -29 7 -50 23 -50 35 0 15 14 10 45
-17z m123 -46 c12 -10 17 -48 6 -48 -5 0 -71 46 -89 63 -14 13 67 -2 83 -15z
m465 -89 c-22 -22 -87 -29 -153 -16 l-65 12 60 6 c110 11 170 10 158 -2z"/>
<path d="M6275 2468 c-47 -42 -55 -117 -55 -558 -1 -217 -5 -577 -9 -800 -5
-229 -5 -414 0 -427 8 -22 12 -23 133 -23 114 0 126 2 136 19 6 12 11 101 11
213 1 106 4 258 8 338 l6 145 100 2 c119 2 244 24 290 53 43 26 99 89 124 137
28 56 39 105 50 223 22 238 -39 523 -131 607 -12 11 -61 33 -108 48 -71 22
-114 28 -265 35 -261 13 -260 13 -290 -12z m594 -217 l0 -36 -19 40 c-26 55
-26 73 0 50 13 -12 20 -30 19 -54z m-160 -97 c59 -52 76 -107 76 -239 0 -101
-2 -115 -29 -169 -24 -49 -36 -61 -73 -78 -58 -25 -110 -21 -135 12 -28 38
-36 253 -14 374 19 107 40 136 98 136 29 0 47 -8 77 -36z m-392 -356 c-2 -18
-4 -4 -4 32 0 36 2 50 4 33 2 -18 2 -48 0 -65z m-6 -376 c-9 -25 -9 -24 -10
18 0 36 2 41 10 27 7 -12 7 -27 0 -45z m107 -289 l-4 -38 -8 47 c-4 26 -5 60
0 75 8 27 8 27 12 -9 2 -21 2 -55 0 -75z"/>
<path d="M9830 2484 c-140 -23 -210 -57 -293 -141 -94 -95 -134 -310 -85 -457
39 -117 127 -234 349 -461 194 -199 224 -243 224 -331 0 -70 -16 -97 -72 -120
-76 -32 -146 -12 -188 53 -26 42 -30 59 -35 145 -3 59 -10 102 -18 110 -12 12
-120 26 -220 27 -48 1 -53 -1 -63 -26 -14 -37 6 -234 33 -322 11 -36 33 -87
49 -112 108 -170 381 -229 611 -130 143 61 238 245 224 433 -9 132 -11 134
-368 506 -174 181 -208 236 -208 340 0 39 6 78 16 98 44 93 217 98 252 8 6
-16 15 -70 21 -121 6 -51 14 -99 17 -107 4 -10 33 -16 111 -21 95 -7 107 -6
131 12 24 18 28 30 35 104 13 127 -4 237 -50 329 -65 128 -163 182 -343 186
-58 1 -116 0 -130 -2z m143 -151 c-7 -2 -21 -2 -30 0 -10 3 -4 5 12 5 17 0 24
-2 18 -5z m-324 -115 c-29 -57 -37 -32 -8 29 14 32 23 42 26 31 2 -9 -6 -36
-18 -60z m236 -596 c-7 -7 -33 17 -57 52 -19 28 -17 27 20 -8 23 -22 40 -42
37 -44z"/>
<path d="M3038 2471 c-53 -3 -99 -9 -103 -12 -3 -4 -8 -148 -10 -320 -3 -173
-7 -496 -10 -719 -3 -223 -8 -477 -11 -566 l-7 -160 28 -22 c23 -19 40 -22
109 -22 99 0 123 6 132 32 3 11 7 151 8 312 1 305 5 336 45 336 35 0 59 -35
131 -190 39 -85 103 -218 141 -295 38 -77 69 -145 69 -152 0 -23 39 -33 129
-33 109 0 145 13 138 49 -6 30 -189 432 -247 542 -34 64 -40 86 -40 136 0 66
6 77 87 167 78 87 94 138 104 326 12 249 -26 418 -110 492 -45 40 -83 55 -211
84 -108 25 -167 27 -372 15z m-21 -248 c-2 -16 -4 -5 -4 22 0 28 2 40 4 28 2
-13 2 -35 0 -50z m322 -63 c83 -42 119 -126 107 -251 -8 -86 -16 -108 -62
-159 -67 -74 -131 -91 -175 -44 -23 25 -24 29 -22 180 2 174 15 263 40 282 24
18 68 15 112 -8z m-242 -162 c-3 -7 -5 -2 -5 12 0 14 2 19 5 13 2 -7 2 -19 0
-25z m-140 -890 c-2 -13 -4 -3 -4 22 0 25 2 35 4 23 2 -13 2 -33 0 -45z m30
-215 c-3 -10 -5 -4 -5 12 0 17 2 24 5 18 2 -7 2 -21 0 -30z"/>
<path d="M7568 2467 c-71 -20 -127 -64 -173 -137 -62 -95 -69 -113 -109 -250
-35 -121 -36 -131 -38 -310 -2 -185 -2 -185 30 -279 60 -174 186 -300 346
-346 50 -15 67 -15 119 -5 126 25 206 81 270 191 97 166 127 522 62 744 -76
265 -200 390 -395 401 -36 2 -86 -2 -112 -9z m-12 -125 c-18 -16 -18 -16 -6 6
6 13 14 21 18 18 3 -4 -2 -14 -12 -24z m182 -186 c46 -24 81 -102 94 -208 13
-116 4 -305 -18 -377 -57 -191 -239 -145 -273 69 -13 80 -14 196 -1 313 10
101 37 159 89 194 39 26 70 29 109 9z m207 -525 c-7 -32 -25 -43 -25 -15 0 19
20 57 27 51 3 -3 2 -19 -2 -36z m-527 -256 c-3 -3 -9 2 -12 12 -6 14 -5 15 5
6 7 -7 10 -15 7 -18z"/>
<path d="M4122 2461 c-67 -5 -86 -10 -98 -25 -11 -16 -14 -63 -14 -218 0 -110
-5 -229 -10 -266 -8 -49 -7 -116 4 -252 11 -157 19 -200 46 -285 40 -126 58
-155 129 -209 79 -61 141 -76 306 -72 119 2 135 4 187 29 75 36 152 121 172
187 14 47 23 112 46 348 9 94 27 712 21 742 -5 27 -24 31 -139 28 -87 -2 -115
-6 -122 -18 -5 -8 -10 -78 -10 -155 0 -77 -5 -212 -10 -300 -6 -88 -14 -231
-19 -317 -10 -170 -22 -214 -72 -251 -63 -46 -160 -26 -204 42 -35 53 -45 193
-45 605 0 193 -4 356 -8 363 -8 12 -58 34 -70 31 -4 -1 -45 -4 -90 -7z m705
-238 c-2 -21 -4 -4 -4 37 0 41 2 58 4 38 2 -21 2 -55 0 -75z m-646 -85 l-9
-33 -1 32 c-1 17 2 40 6 50 12 30 16 -9 4 -49z m1 -681 c-9 -28 -10 -23 -10
43 0 72 1 73 11 32 7 -29 7 -52 -1 -75z"/>
<path d="M5435 2452 c-44 -9 -101 -29 -126 -44 -140 -82 -219 -270 -207 -488
8 -136 93 -294 296 -548 192 -241 286 -443 299 -647 12 -188 -59 -307 -237
-400 -118 -61 -263 -25 -416 104 -105 88 -98 85 -131 65 -34 -22 -143 -120
-161 -146 -19 -26 10 -64 107 -140 136 -108 252 -167 380 -193 55 -12 79 -12
162 1 115 17 145 27 264 87 106 53 168 105 231 193 57 80 87 155 109 269 49
259 -48 516 -343 905 -168 224 -179 240 -213 325 -28 68 -32 93 -33 170 -1 75
3 98 23 138 56 114 217 121 278 12 19 -34 28 -72 48 -197 7 -45 18 -49 124
-49 114 0 126 9 134 99 20 210 -93 431 -244 477 -81 24 -247 28 -344 7z m-230
-377 c-16 -70 -25 -80 -25 -29 0 33 21 84 35 84 2 0 -3 -25 -10 -55z m550
-975 c23 -44 18 -73 -5 -30 -18 34 -25 60 -15 60 2 0 11 -13 20 -30z m25 -533
c0 -13 -7 -32 -15 -43 -14 -19 -14 -19 -15 1 0 30 11 65 21 65 5 0 9 -10 9
-23z"/>
<path d="M9040 2459 c-69 -5 -253 -7 -410 -6 -157 2 -299 0 -316 -5 -29 -8
-32 -12 -37 -66 -7 -73 5 -185 22 -206 11 -13 33 -16 105 -16 76 0 98 -4 131
-23 22 -12 47 -36 55 -52 19 -37 19 -146 1 -850 -9 -357 -10 -518 -2 -537 8
-22 18 -28 57 -34 56 -8 203 1 215 13 5 5 13 303 19 663 6 360 13 684 16 719
9 97 23 106 162 114 171 9 182 20 183 175 1 91 -14 123 -55 121 -12 -1 -77 -6
-146 -10z m-271 -103 c-2 -2 -51 -6 -109 -10 -66 -3 -98 -2 -85 3 19 9 203 15
194 7z m-71 -683 l-3 -48 -9 38 c-4 20 -4 63 0 95 l9 57 3 -47 c2 -27 2 -69 0
-95z m119 -125 c-2 -13 -4 -3 -4 22 0 25 2 35 4 23 2 -13 2 -33 0 -45z"/>
<path d="M4078 913 c-45 -5 -49 -14 -55 -129 -8 -134 -43 -124 439 -124 368 0
398 1 406 18 5 9 12 60 16 113 5 73 4 98 -6 106 -13 10 -724 24 -800 16z m445
-60 c-13 -2 -35 -2 -50 0 -16 2 -5 4 22 4 28 0 40 -2 28 -4z"/>
<path d="M7281 860 c-16 -73 -14 -166 3 -183 22 -21 730 -33 762 -13 19 13 22
27 29 116 5 73 3 105 -5 115 -11 13 -73 15 -395 15 l-383 0 -11 -50z m452 -7
c-13 -2 -33 -2 -45 0 -13 2 -3 4 22 4 25 0 35 -2 23 -4z"/>
</g>
</svg>
