<svg xmlns="http://www.w3.org/2000/svg" viewBox="0 0 1545.58 291.74"><defs><style>.cls-1,.cls-4{fill:none;}.cls-1{stroke:#000;}.cls-1,.cls-3{stroke-miterlimit:10;}.cls-2{fill:#df6341;}.cls-3{fill:#fff;stroke:#fff;}</style></defs><g id="Layer_1" data-name="Layer 1"><path class="cls-1" d="M216.82,274.22h0" transform="translate(-48.56 -0.64)"/><path class="cls-2" d="M180,278.44H74.2L112.65,9.87a8.39,8.39,0,0,1,8.2-7.32h12.46a8.39,8.39,0,0,1,8.21,7.33Z" transform="translate(-48.56 -0.64)"/><rect class="cls-2" y="277.8" width="157.05" height="12.62" rx="5.88"/><polygon class="cls-3" points="108.05 114.61 49 114.61 57.45 55.62 99.6 55.62 108.05 114.61"/><polygon class="cls-3" points="124.19 227.31 32.87 227.31 40.82 171.4 116.18 171.4 124.19 227.31"/><path class="cls-4" d="M182.2,11.36" transform="translate(-48.56 -0.64)"/><path class="cls-4" d="M90.23,11.36" transform="translate(-48.56 -0.64)"/><path class="cls-2" d="M1568.5,278.14H1462.73L1501.18,9.57a8.38,8.38,0,0,1,8.2-7.32h12.46a8.39,8.39,0,0,1,8.21,7.33Z" transform="translate(-48.56 -0.64)"/><rect class="cls-2" x="1388.53" y="277.49" width="157.05" height="12.62" rx="5.88"/><polygon class="cls-3" points="1496.58 114.31 1437.54 114.31 1445.98 55.32 1488.13 55.32 1496.58 114.31"/><polygon class="cls-3" points="1512.72 227.01 1421.4 227.01 1429.36 171.1 1504.71 171.1 1512.72 227.01"/><path class="cls-1" d="M1570.73,11.06" transform="translate(-48.56 -0.64)"/><path class="cls-1" d="M1478.77,11.06" transform="translate(-48.56 -0.64)"/></g><g id="Layer_2" data-name="Layer 2"><path d="M307,1l-3,.5v29l27.4.3,27.3.2-.6,25.8c-.4,14.1-1.2,35.1-1.8,46.7s-.7,25-.4,30,1.1,16.2,1.6,24.9c.8,13.5,1.5,17.9,4.6,29,4.3,15.6,6.8,20.9,12.7,26.7,8.3,8.3,39.8,25.1,59.3,31.8a139.64,139.64,0,0,0,18.8,4.7c8.4,1.4,11.1,1.5,18.4.5,11.8-1.7,25.3-6.2,40.7-13.5,24.6-11.8,40.1-23,44.5-32.1,3.2-6.6,6.8-22.4,8-34.7,3.1-34.1,4-48.8,5-82.8,1.4-49.2,1.7-52.6,4.4-53.6C575,34,746.1,33.3,954,32.9s379.5-1,381.3-1.4l3.2-.7V1L939,1.2c-326,.3-399.6.5-400.7,1.6s-1.5,7.7-2,25.5c-.6,21.2-2.2,64.6-3.3,86.7-.2,4.1-.6,13.3-.9,20.5-1.1,22.6-3.6,34.4-9.8,45.2-6.7,11.8-18.7,19.8-34.2,22.8-10.7,2.1-39.6,2-50.7-.1-17.9-3.3-29.9-12-36.9-26.6-7.3-15.4-7.4-16.6-7.5-99.1V4.8l-2.4-1.9a8.92,8.92,0,0,0-4-1.9c-.9.1-18.5-.1-39.1-.3S308.7.6,307,1Zm778.5,12.9c3.7.7,2.6.9-5.5.9-6.4,0-9.1-.3-7.5-.8C1075.7,13,1079.9,12.9,1085.5,13.9ZM809,17.5c2.8,1.2,2.3,1.3-7,1.3s-9.8-.1-7-1.3a19.39,19.39,0,0,1,7-1.4A19,19,0,0,1,809,17.5ZM348.4,18.6c.2.2-4.9.3-11.5.2-8.5-.1-10.6-.3-7.4-.8C333.7,17.4,347.5,17.8,348.4,18.6Zm363,0c.2.2-5.2.3-12,.2-8.6-.1-11-.3-7.9-.8C695.7,17.4,710.5,17.8,711.4,18.6Zm297.9,0a87.9,87.9,0,0,1-9.2.6c-8.9.3-11.8-.5-5.1-1.5C997.9,17.3,1008.6,18,1009.3,18.6Zm302.1,0c.2.2-3.8.3-9,.3-6.7-.1-8.4-.4-5.9-.9C1299.7,17.3,1310.4,17.8,1311.4,18.6ZM606.8,19.9c.8.8-1.7,1.1-9.8,1-10.3-.1-10.8-.2-8-1.5C592.5,17.7,605,18.1,606.8,19.9Zm290.7,2c1.7.5-.8,1-7.4,1.4-5.5.4-10.2.5-10.4.2C877.8,21.6,892,20.4,897.5,21.9Zm305,1.2c-6.7,1.1-14.9,1.1-13-.1.8-.5,5.1-.9,9.5-.9C1206.3,22.2,1206.6,22.3,1202.5,23.1ZM558.6,28.3c-1.4,4.1-7,13.1-7.7,12.4-.3-.3,1.3-4.2,3.6-8.7C558.6,23.8,560.7,21.9,558.6,28.3ZM379.1,45.5l-1.4,5,.5-7c.6-8.2,1.6-11.6,2-6.5A27.89,27.89,0,0,1,379.1,45.5ZM544.5,110c0,6-.4,10-1,10s-1-3-1-6.9c0-6.5.8-13.1,1.6-13.1C544.3,100,544.5,104.5,544.5,110ZM380.4,181.5c0,3.3-.4,6.7-.9,7.5-.7,1-.9-1.7-.9-8.5C378.7,169.7,380.2,170.6,380.4,181.5Zm151.6,25a24.7,24.7,0,0,1-5.9,6.9c-8.4,6.8-8.8,5.7-1.1-2.7,4.3-4.8,8.1-8.5,8.3-8.3S532.9,204.5,532,206.5Zm-121,7.1c2.9,2.4,2.9,2.5.5,1.8-2.9-.7-5-2.3-5-3.5C406.5,210.4,407.9,210.9,411,213.6Zm12.3,4.6c1.2,1,1.7,4.8.6,4.8-.5,0-7.1-4.6-8.9-6.3C413.6,215.4,421.7,216.9,423.3,218.2Zm46.5,8.9c-2.2,2.2-8.7,2.9-15.3,1.6l-6.5-1.2,6-.6C465,225.8,471,225.9,469.8,227.1Z" transform="translate(-48.56 -0.64)"/><path d="M931,46.2c-4.7,4.2-5.5,11.7-5.5,55.8-.1,21.7-.5,57.7-.9,80-.5,22.9-.5,41.4,0,42.7.8,2.2,1.2,2.3,13.3,2.3,11.4,0,12.6-.2,13.6-1.9.6-1.2,1.1-10.1,1.1-21.3.1-10.6.4-25.8.8-33.8l.6-14.5,10-.2c11.9-.2,24.4-2.4,29-5.3,4.3-2.6,9.9-8.9,12.4-13.7,2.8-5.6,3.9-10.5,5-22.3,2.2-23.8-3.9-52.3-13.1-60.7-1.2-1.1-6.1-3.3-10.8-4.8-7.1-2.2-11.4-2.8-26.5-3.5C933.9,43.7,934,43.7,931,46.2Zm59.4,21.7v3.6l-1.9-4c-2.6-5.5-2.6-7.3,0-5A6.63,6.63,0,0,1,990.4,67.9Zm-16,9.7c5.9,5.2,7.6,10.7,7.6,23.9,0,10.1-.2,11.5-2.9,16.9-2.4,4.9-3.6,6.1-7.3,7.8-5.8,2.5-11,2.1-13.5-1.2-2.8-3.8-3.6-25.3-1.4-37.4,1.9-10.7,4-13.6,9.8-13.6C969.6,74,971.4,74.8,974.4,77.6Zm-39.2,35.6c-.2,1.8-.4.4-.4-3.2s.2-5,.4-3.3A35.28,35.28,0,0,1,935.2,113.2Zm-.6,37.6c-.9,2.5-.9,2.4-1-1.8,0-3.6.2-4.1,1-2.7A5,5,0,0,1,934.6,150.8Zm10.7,28.9-.4,3.8-.8-4.7c-.4-2.6-.5-6,0-7.5.8-2.7.8-2.7,1.2.9A47,47,0,0,1,945.3,179.7Z" transform="translate(-48.56 -0.64)"/><path d="M1286.5,44.6c-14,2.3-21,5.7-29.3,14.1-9.4,9.5-13.4,31-8.5,45.7,3.9,11.7,12.7,23.4,34.9,46.1,19.4,19.9,22.4,24.3,22.4,33.1,0,7-1.6,9.7-7.2,12-7.6,3.2-14.6,1.2-18.8-5.3-2.6-4.2-3-5.9-3.5-14.5-.3-5.9-1-10.2-1.8-11-1.2-1.2-12-2.6-22-2.7-4.8-.1-5.3.1-6.3,2.6-1.4,3.7.6,23.4,3.3,32.2a55.45,55.45,0,0,0,4.9,11.2c10.8,17,38.1,22.9,61.1,13,14.3-6.1,23.8-24.5,22.4-43.3-.9-13.2-1.1-13.4-36.8-50.6-17.4-18.1-20.8-23.6-20.8-34,0-3.9.6-7.8,1.6-9.8,4.4-9.3,21.7-9.8,25.2-.8.6,1.6,1.5,7,2.1,12.1a94.34,94.34,0,0,0,1.7,10.7c.4,1,3.3,1.6,11.1,2.1,9.5.7,10.7.6,13.1-1.2s2.8-3,3.5-10.4c1.3-12.7-.4-23.7-5-32.9-6.5-12.8-16.3-18.2-34.3-18.6C1293.7,44.3,1287.9,44.4,1286.5,44.6Zm14.3,15.1a7.56,7.56,0,0,1-3,0c-1-.3-.4-.5,1.2-.5S1301.4,59.4,1300.8,59.7Zm-32.4,11.5c-2.9,5.7-3.7,3.2-.8-2.9,1.4-3.2,2.3-4.2,2.6-3.1C1270.4,66.1,1269.6,68.8,1268.4,71.2Zm23.6,59.6c-.7.7-3.3-1.7-5.7-5.2-1.9-2.8-1.7-2.7,2,.8C1290.6,128.6,1292.3,130.6,1292,130.8Z" transform="translate(-48.56 -0.64)"/><path d="M607.3,45.9c-5.3.3-9.9.9-10.3,1.2s-.8,14.8-1,32-.7,49.6-1,71.9-.8,47.7-1.1,56.6l-.7,16,2.8,2.2c2.3,1.9,4,2.2,10.9,2.2,9.9,0,12.3-.6,13.2-3.2.3-1.1.7-15.1.8-31.2.1-30.5.5-33.6,4.5-33.6,3.5,0,5.9,3.5,13.1,19,3.9,8.5,10.3,21.8,14.1,29.5s6.9,14.5,6.9,15.2c0,2.3,3.9,3.3,12.9,3.3,10.9,0,14.5-1.3,13.8-4.9-.6-3-18.9-43.2-24.7-54.2-3.4-6.4-4-8.6-4-13.6,0-6.6.6-7.7,8.7-16.7,7.8-8.7,9.4-13.8,10.4-32.6,1.2-24.9-2.6-41.8-11-49.2-4.5-4-8.3-5.5-21.1-8.4C633.7,44.9,627.8,44.7,607.3,45.9Zm-2.1,24.8c-.2,1.6-.4.5-.4-2.2s.2-4,.4-2.8A20.89,20.89,0,0,1,605.2,70.7ZM637.4,77c8.3,4.2,11.9,12.6,10.7,25.1-.8,8.6-1.6,10.8-6.2,15.9-6.7,7.4-13.1,9.1-17.5,4.4-2.3-2.5-2.4-2.9-2.2-18,.2-17.4,1.5-26.3,4-28.2S633,74.7,637.4,77ZM613.2,93.2c-.3.7-.5.2-.5-1.2s.2-1.9.5-1.3A5.28,5.28,0,0,1,613.2,93.2Zm-14,89c-.2,1.3-.4.3-.4-2.2s.2-3.5.4-2.3A17,17,0,0,1,599.2,182.2Zm3,21.5c-.3,1-.5.4-.5-1.2s.2-2.4.5-1.8A7.56,7.56,0,0,1,602.2,203.7Z" transform="translate(-48.56 -0.64)"/><path d="M1060.3,46.3c-7.1,2-12.7,6.4-17.3,13.7-6.2,9.5-6.9,11.3-10.9,25-3.5,12.1-3.6,13.1-3.8,31-.2,18.5-.2,18.5,3,27.9,6,17.4,18.6,30,34.6,34.6,5,1.5,6.7,1.5,11.9.5,12.6-2.5,20.6-8.1,27-19.1,9.7-16.6,12.7-52.2,6.2-74.4-7.6-26.5-20-39-39.5-40.1A43.09,43.09,0,0,0,1060.3,46.3Zm-1.2,12.5c-1.8,1.6-1.8,1.6-.6-.6.6-1.3,1.4-2.1,1.8-1.8S1060.1,57.8,1059.1,58.8Zm18.2,18.6c4.6,2.4,8.1,10.2,9.4,20.8,1.3,11.6.4,30.5-1.8,37.7-5.7,19.1-23.9,14.5-27.3-6.9-1.3-8-1.4-19.6-.1-31.3,1-10.1,3.7-15.9,8.9-19.4C1070.3,75.7,1073.4,75.4,1077.3,77.4Zm20.7,52.5c-.7,3.2-2.5,4.3-2.5,1.5,0-1.9,2-5.7,2.7-5.1C1098.5,126.6,1098.4,128.2,1098,129.9Zm-52.7,25.6c-.3.3-.9-.2-1.2-1.2-.6-1.4-.5-1.5.5-.6C1045.3,154.4,1045.6,155.2,1045.3,155.5Z" transform="translate(-48.56 -0.64)"/><path d="M715.7,46.9c-6.7.5-8.6,1-9.8,2.5s-1.4,6.3-1.4,21.8c0,11-.5,22.9-1,26.6-.8,4.9-.7,11.6.4,25.2,1.1,15.7,1.9,20,4.6,28.5,4,12.6,5.8,15.5,12.9,20.9,7.9,6.1,14.1,7.6,30.6,7.2,11.9-.2,13.5-.4,18.7-2.9,7.5-3.6,15.2-12.1,17.2-18.7,1.4-4.7,2.3-11.2,4.6-34.8.9-9.4,2.7-71.2,2.1-74.2-.5-2.7-2.4-3.1-13.9-2.8-8.7.2-11.5.6-12.2,1.8-.5.8-1,7.8-1,15.5s-.5,21.2-1,30-1.4,23.1-1.9,31.7c-1,17-2.2,21.4-7.2,25.1-6.3,4.6-16,2.6-20.4-4.2-3.5-5.3-4.5-19.3-4.5-60.5,0-19.3-.4-35.6-.8-36.3-.8-1.2-5.8-3.4-7-3.1C724.3,46.3,720.2,46.6,715.7,46.9Zm70.5,23.8c-.2,2.1-.4.4-.4-3.7s.2-5.8.4-3.8A47,47,0,0,1,786.2,70.7Zm-64.6,8.5-.9,3.3-.1-3.2a14.56,14.56,0,0,1,.6-5C722.4,71.3,722.8,75.2,721.6,79.2Zm.1,68.1c-.9,2.8-1,2.3-1-4.3,0-7.2.1-7.3,1.1-3.2A12.68,12.68,0,0,1,721.7,147.3Z" transform="translate(-48.56 -0.64)"/><path d="M847,47.8a49.6,49.6,0,0,0-12.6,4.4c-14,8.2-21.9,27-20.7,48.8.8,13.6,9.3,29.4,29.6,54.8,19.2,24.1,28.6,44.3,29.9,64.7,1.2,18.8-5.9,30.7-23.7,40-11.8,6.1-26.3,2.5-41.6-10.4-10.5-8.8-9.8-8.5-13.1-6.5-3.4,2.2-14.3,12-16.1,14.6s1,6.4,10.7,14c13.6,10.8,25.2,16.7,38,19.3,5.5,1.2,7.9,1.2,16.2-.1,11.5-1.7,14.5-2.7,26.4-8.7,10.6-5.3,16.8-10.5,23.1-19.3,5.7-8,8.7-15.5,10.9-26.9,4.9-25.9-4.8-51.6-34.3-90.5-16.8-22.4-17.9-24-21.3-32.5-2.8-6.8-3.2-9.3-3.3-17-.1-7.5.3-9.8,2.3-13.8,5.6-11.4,21.7-12.1,27.8-1.2,1.9,3.4,2.8,7.2,4.8,19.7.7,4.5,1.8,4.9,12.4,4.9,11.4,0,12.6-.9,13.4-9.9,2-21-9.3-43.1-24.4-47.7C873.3,46.1,856.7,45.7,847,47.8ZM824,85.5c-1.6,7-2.5,8-2.5,2.9,0-3.3,2.1-8.4,3.5-8.4C825.2,80,824.7,82.5,824,85.5ZM879,183c2.3,4.4,1.8,7.3-.5,3-1.8-3.4-2.5-6-1.5-6A10.42,10.42,0,0,1,879,183Zm2.5,53.3a8.57,8.57,0,0,1-1.5,4.3c-1.4,1.9-1.4,1.9-1.5-.1,0-3,1.1-6.5,2.1-6.5C881.1,234,881.5,235,881.5,236.3Z" transform="translate(-48.56 -0.64)"/><path d="M1207.5,47.1c-6.9.5-25.3.7-41,.6s-29.9,0-31.6.5c-2.9.8-3.2,1.2-3.7,6.6-.7,7.3.5,18.5,2.2,20.6,1.1,1.3,3.3,1.6,10.5,1.6,7.6,0,9.8.4,13.1,2.3a15.4,15.4,0,0,1,5.5,5.2c1.9,3.7,1.9,14.6.1,85-.9,35.7-1,51.8-.2,53.7.8,2.2,1.8,2.8,5.7,3.4,5.6.8,20.3-.1,21.5-1.3.5-.5,1.3-30.3,1.9-66.3s1.3-68.4,1.6-71.9c.9-9.7,2.3-10.6,16.2-11.4,17.1-.9,18.2-2,18.3-17.5.1-9.1-1.4-12.3-5.5-12.1C1220.9,46.2,1214.4,46.7,1207.5,47.1Zm-27.1,10.3c-.2.2-5.1.6-10.9,1-6.6.3-9.8.2-8.5-.3C1162.9,57.2,1181.3,56.6,1180.4,57.4Zm-7.1,68.3-.3,4.8-.9-3.8a37.42,37.42,0,0,1,0-9.5l.9-5.7.3,4.7A75.28,75.28,0,0,1,1173.3,125.7Zm11.9,12.5c-.2,1.3-.4.3-.4-2.2s.2-3.5.4-2.3A17,17,0,0,1,1185.2,138.2Z" transform="translate(-48.56 -0.64)"/><path d="M711.3,201.7c-4.5.5-4.9,1.4-5.5,12.9C705,228,701.5,227,749.7,227c36.8,0,39.8-.1,40.6-1.8.5-.9,1.2-6,1.6-11.3.5-7.3.4-9.8-.6-10.6C790,202.3,718.9,200.9,711.3,201.7Zm44.5,6a20.89,20.89,0,0,1-5,0c-1.6-.2-.5-.4,2.2-.4S757,207.5,755.8,207.7Z" transform="translate(-48.56 -0.64)"/><path d="M1031.6,207c-1.6,7.3-1.4,16.6.3,18.3,2.2,2.1,73,3.3,76.2,1.3,1.9-1.3,2.2-2.7,2.9-11.6.5-7.3.3-10.5-.5-11.5-1.1-1.3-7.3-1.5-39.5-1.5h-38.3Zm45.2.7a17,17,0,0,1-4.5,0c-1.3-.2-.3-.4,2.2-.4S1078,207.5,1076.8,207.7Z" transform="translate(-48.56 -0.64)"/></g></svg>